<?xml version="1.0" standalone="no"?><svg xmlns="http://www.w3.org/2000/svg" viewBox="0 0 1440 320"><path fill="#0099ff" fill-opacity="1" d="M0,64L8.6,69.3C17.1,75,34,85,51,96C68.6,107,86,117,103,144C120,171,137,213,154,240C171.4,267,189,277,206,282.7C222.9,288,240,288,257,261.3C274.3,235,291,181,309,165.3C325.7,149,343,171,360,176C377.1,181,394,171,411,165.3C428.6,160,446,160,463,186.7C480,213,497,267,514,245.3C531.4,224,549,128,566,106.7C582.9,85,600,139,617,176C634.3,213,651,235,669,245.3C685.7,256,703,256,720,218.7C737.1,181,754,107,771,85.3C788.6,64,806,96,823,112C840,128,857,128,874,154.7C891.4,181,909,235,926,261.3C942.9,288,960,288,977,245.3C994.3,203,1011,117,1029,112C1045.7,107,1063,181,1080,186.7C1097.1,192,1114,128,1131,128C1148.6,128,1166,192,1183,197.3C1200,203,1217,149,1234,112C1251.4,75,1269,53,1286,58.7C1302.9,64,1320,96,1337,128C1354.3,160,1371,192,1389,208C1405.7,224,1423,224,1431,224L1440,224L1440,0L1431.4,0C1422.9,0,1406,0,1389,0C1371.4,0,1354,0,1337,0C1320,0,1303,0,1286,0C1268.6,0,1251,0,1234,0C1217.1,0,1200,0,1183,0C1165.7,0,1149,0,1131,0C1114.3,0,1097,0,1080,0C1062.9,0,1046,0,1029,0C1011.4,0,994,0,977,0C960,0,943,0,926,0C908.6,0,891,0,874,0C857.1,0,840,0,823,0C805.7,0,789,0,771,0C754.3,0,737,0,720,0C702.9,0,686,0,669,0C651.4,0,634,0,617,0C600,0,583,0,566,0C548.6,0,531,0,514,0C497.1,0,480,0,463,0C445.7,0,429,0,411,0C394.3,0,377,0,360,0C342.9,0,326,0,309,0C291.4,0,274,0,257,0C240,0,223,0,206,0C188.6,0,171,0,154,0C137.1,0,120,0,103,0C85.7,0,69,0,51,0C34.3,0,17,0,9,0L0,0Z"></path></svg>